<?xml version="1.0" encoding="UTF-8" standalone="no"?>
<!DOCTYPE svg PUBLIC "-//W3C//DTD SVG 1.1//EN"
 "http://www.w3.org/Graphics/SVG/1.1/DTD/svg11.dtd">
<!-- Generated by graphviz version 2.40.1 (20161225.0304)
 -->
<!-- Title: dependencies Pages: 1 -->
<svg width="951pt" height="284pt"
 viewBox="0.00 0.00 951.00 284.00" xmlns="http://www.w3.org/2000/svg" xmlns:xlink="http://www.w3.org/1999/xlink">
<g id="graph0" class="graph" transform="scale(1 1) rotate(0) translate(4 280)">
<title>dependencies</title>
<polygon fill="#ffffff" stroke="transparent" points="-4,4 -4,-280 947,-280 947,4 -4,4"/>
<text text-anchor="start" x="450.5091" y="-42.4" font-family="sans-serif" font-weight="bold" font-size="14.00" fill="#000000">Legend</text>
<polygon fill="#ffffb3" stroke="transparent" points="237.5,-10 237.5,-30 257.5,-30 257.5,-10 237.5,-10"/>
<text text-anchor="start" x="261.129" y="-15.4" font-family="sans-serif" font-size="14.00" fill="#000000"> &#160;Declarations</text>
<polygon fill="#8dd3c7" stroke="transparent" points="350.5,-10 350.5,-30 370.5,-30 370.5,-10 350.5,-10"/>
<text text-anchor="start" x="374.2251" y="-15.4" font-family="sans-serif" font-size="14.00" fill="#000000"> &#160;Module</text>
<polygon fill="#80b1d3" stroke="transparent" points="436.5,-10 436.5,-30 456.5,-30 456.5,-10 436.5,-10"/>
<text text-anchor="start" x="460.2812" y="-15.4" font-family="sans-serif" font-size="14.00" fill="#000000"> &#160;Bootstrap</text>
<polygon fill="#fdb462" stroke="transparent" points="533.5,-10 533.5,-30 553.5,-30 553.5,-10 533.5,-10"/>
<text text-anchor="start" x="557.1732" y="-15.4" font-family="sans-serif" font-size="14.00" fill="#000000"> &#160;Providers</text>
<polygon fill="#fb8072" stroke="transparent" points="629.5,-10 629.5,-30 649.5,-30 649.5,-10 629.5,-10"/>
<text text-anchor="start" x="653.2258" y="-15.4" font-family="sans-serif" font-size="14.00" fill="#000000"> &#160;Exports</text>
<g id="clust1" class="cluster">
<title>cluster_ModalModule</title>
<polygon fill="none" stroke="#000000" stroke-dasharray="1,5" points="8,-70 8,-268 935,-268 935,-70 8,-70"/>
</g>
<g id="clust2" class="cluster">
<title>cluster_ModalModule_declarations</title>
<polygon fill="none" stroke="#000000" points="260,-78 260,-130 927,-130 927,-78 260,-78"/>
</g>
<g id="clust8" class="cluster">
<title>cluster_ModalModule_imports</title>
<polygon fill="none" stroke="#000000" points="124,-78 124,-130 252,-130 252,-78 124,-78"/>
</g>
<g id="clust9" class="cluster">
<title>cluster_ModalModule_exports</title>
<polygon fill="none" stroke="#000000" points="171,-208 171,-260 737,-260 737,-208 171,-208"/>
</g>
<g id="clust11" class="cluster">
<title>cluster_ModalModule_providers</title>
<polygon fill="none" stroke="#000000" points="16,-78 16,-130 116,-130 116,-78 16,-78"/>
</g>
<!-- ModalOverlay -->
<g id="node1" class="node">
<title>ModalOverlay</title>
<polygon fill="#ffffb3" stroke="#000000" points="918.6375,-122 821.3625,-122 821.3625,-86 918.6375,-86 918.6375,-122"/>
<text text-anchor="middle" x="870" y="-99.8" font-family="Times,serif" font-size="14.00" fill="#000000">ModalOverlay</text>
</g>
<!-- ModalModule -->
<g id="node6" class="node">
<title>ModalModule</title>
<polygon fill="#8dd3c7" stroke="#000000" points="509.0997,-187 506.0997,-191 485.0997,-191 482.0997,-187 412.9003,-187 412.9003,-151 509.0997,-151 509.0997,-187"/>
<text text-anchor="middle" x="461" y="-164.8" font-family="Times,serif" font-size="14.00" fill="#000000">ModalModule</text>
</g>
<!-- ModalOverlay&#45;&gt;ModalModule -->
<g id="edge1" class="edge">
<title>ModalOverlay&#45;&gt;ModalModule</title>
<path fill="none" stroke="#000000" d="M870,-122.1289C870,-142.5724 870,-173 870,-173 870,-173 519.1202,-173 519.1202,-173"/>
<polygon fill="#000000" stroke="#000000" points="519.1202,-169.5001 509.1202,-173 519.1202,-176.5001 519.1202,-169.5001"/>
</g>
<!-- CSSBackdrop -->
<g id="node2" class="node">
<title>CSSBackdrop</title>
<polygon fill="#ffffb3" stroke="#000000" points="803.8288,-122 708.1712,-122 708.1712,-86 803.8288,-86 803.8288,-122"/>
<text text-anchor="middle" x="756" y="-99.8" font-family="Times,serif" font-size="14.00" fill="#000000">CSSBackdrop</text>
</g>
<!-- CSSBackdrop&#45;&gt;ModalModule -->
<g id="edge2" class="edge">
<title>CSSBackdrop&#45;&gt;ModalModule</title>
<path fill="none" stroke="#000000" d="M718.875,-122.2667C718.875,-140.5552 718.875,-166 718.875,-166 718.875,-166 519.2018,-166 519.2018,-166"/>
<polygon fill="#000000" stroke="#000000" points="519.2018,-162.5001 509.2018,-166 519.2018,-169.5001 519.2018,-162.5001"/>
</g>
<!-- CSSDialogContainer -->
<g id="node3" class="node">
<title>CSSDialogContainer</title>
<polygon fill="#ffffb3" stroke="#000000" points="690.212,-122 555.788,-122 555.788,-86 690.212,-86 690.212,-122"/>
<text text-anchor="middle" x="623" y="-99.8" font-family="Times,serif" font-size="14.00" fill="#000000">CSSDialogContainer</text>
</g>
<!-- CSSDialogContainer&#45;&gt;ModalModule -->
<g id="edge3" class="edge">
<title>CSSDialogContainer&#45;&gt;ModalModule</title>
<path fill="none" stroke="#000000" d="M584.375,-122.0091C584.375,-138.0494 584.375,-159 584.375,-159 584.375,-159 519.0533,-159 519.0533,-159"/>
<polygon fill="#000000" stroke="#000000" points="519.0533,-155.5001 509.0533,-159 519.0532,-162.5001 519.0533,-155.5001"/>
</g>
<!-- OverlayDialogBoundary -->
<g id="node4" class="node">
<title>OverlayDialogBoundary</title>
<polygon fill="#ffffb3" stroke="#000000" points="538.4017,-122 383.5983,-122 383.5983,-86 538.4017,-86 538.4017,-122"/>
<text text-anchor="middle" x="461" y="-99.8" font-family="Times,serif" font-size="14.00" fill="#000000">OverlayDialogBoundary</text>
</g>
<!-- OverlayDialogBoundary&#45;&gt;ModalModule -->
<g id="edge4" class="edge">
<title>OverlayDialogBoundary&#45;&gt;ModalModule</title>
<path fill="none" stroke="#000000" d="M461,-122.1061C461,-122.1061 461,-140.991 461,-140.991"/>
<polygon fill="#000000" stroke="#000000" points="457.5001,-140.9909 461,-150.991 464.5001,-140.991 457.5001,-140.9909"/>
</g>
<!-- OverlayTarget -->
<g id="node5" class="node">
<title>OverlayTarget</title>
<polygon fill="#ffffb3" stroke="#000000" points="365.6207,-122 268.3793,-122 268.3793,-86 365.6207,-86 365.6207,-122"/>
<text text-anchor="middle" x="317" y="-99.8" font-family="Times,serif" font-size="14.00" fill="#000000">OverlayTarget</text>
</g>
<!-- OverlayTarget&#45;&gt;ModalModule -->
<g id="edge5" class="edge">
<title>OverlayTarget&#45;&gt;ModalModule</title>
<path fill="none" stroke="#000000" d="M332.4297,-122.0091C332.4297,-138.0494 332.4297,-159 332.4297,-159 332.4297,-159 402.7594,-159 402.7594,-159"/>
<polygon fill="#000000" stroke="#000000" points="402.7594,-162.5001 412.7594,-159 402.7593,-155.5001 402.7594,-162.5001"/>
</g>
<!-- CSSBackdrop  -->
<g id="node8" class="node">
<title>CSSBackdrop </title>
<polygon fill="#fb8072" stroke="#000000" points="729.3283,-252 630.6717,-252 630.6717,-216 729.3283,-216 729.3283,-252"/>
<text text-anchor="middle" x="680" y="-229.8" font-family="Times,serif" font-size="14.00" fill="#000000">CSSBackdrop </text>
</g>
<!-- ModalModule&#45;&gt;CSSBackdrop  -->
<g id="edge7" class="edge">
<title>ModalModule&#45;&gt;CSSBackdrop </title>
<path fill="none" stroke="#000000" stroke-dasharray="5,2" d="M509.2561,-180C568.2531,-180 660.3459,-180 660.3459,-180 660.3459,-180 660.3459,-205.7181 660.3459,-205.7181"/>
<polygon fill="#000000" stroke="#000000" points="656.846,-205.718 660.3459,-215.7181 663.846,-205.7181 656.846,-205.718"/>
</g>
<!-- CSSDialogContainer  -->
<g id="node9" class="node">
<title>CSSDialogContainer </title>
<polygon fill="#fb8072" stroke="#000000" points="612.7121,-252 475.2879,-252 475.2879,-216 612.7121,-216 612.7121,-252"/>
<text text-anchor="middle" x="544" y="-229.8" font-family="Times,serif" font-size="14.00" fill="#000000">CSSDialogContainer </text>
</g>
<!-- ModalModule&#45;&gt;CSSDialogContainer  -->
<g id="edge8" class="edge">
<title>ModalModule&#45;&gt;CSSDialogContainer </title>
<path fill="none" stroke="#000000" stroke-dasharray="5,2" d="M492.097,-187.1061C492.097,-187.1061 492.097,-205.991 492.097,-205.991"/>
<polygon fill="#000000" stroke="#000000" points="488.597,-205.9909 492.097,-215.991 495.597,-205.991 488.597,-205.9909"/>
</g>
<!-- OverlayDialogBoundary  -->
<g id="node10" class="node">
<title>OverlayDialogBoundary </title>
<polygon fill="#fb8072" stroke="#000000" points="456.9012,-252 299.0988,-252 299.0988,-216 456.9012,-216 456.9012,-252"/>
<text text-anchor="middle" x="378" y="-229.8" font-family="Times,serif" font-size="14.00" fill="#000000">OverlayDialogBoundary </text>
</g>
<!-- ModalModule&#45;&gt;OverlayDialogBoundary  -->
<g id="edge9" class="edge">
<title>ModalModule&#45;&gt;OverlayDialogBoundary </title>
<path fill="none" stroke="#000000" stroke-dasharray="5,2" d="M434.9504,-187.1061C434.9504,-187.1061 434.9504,-205.991 434.9504,-205.991"/>
<polygon fill="#000000" stroke="#000000" points="431.4505,-205.9909 434.9504,-215.991 438.4505,-205.991 431.4505,-205.9909"/>
</g>
<!-- OverlayTarget  -->
<g id="node11" class="node">
<title>OverlayTarget </title>
<polygon fill="#fb8072" stroke="#000000" points="280.6201,-252 179.3799,-252 179.3799,-216 280.6201,-216 280.6201,-252"/>
<text text-anchor="middle" x="230" y="-229.8" font-family="Times,serif" font-size="14.00" fill="#000000">OverlayTarget </text>
</g>
<!-- ModalModule&#45;&gt;OverlayTarget  -->
<g id="edge10" class="edge">
<title>ModalModule&#45;&gt;OverlayTarget </title>
<path fill="none" stroke="#000000" stroke-dasharray="5,2" d="M412.9394,-180C357.6438,-180 274.375,-180 274.375,-180 274.375,-180 274.375,-205.7181 274.375,-205.7181"/>
<polygon fill="#000000" stroke="#000000" points="270.8751,-205.718 274.375,-215.7181 277.8751,-205.7181 270.8751,-205.718"/>
</g>
<!-- CommonModule -->
<g id="node7" class="node">
<title>CommonModule</title>
<polygon fill="#8dd3c7" stroke="#000000" points="243.6681,-122 240.6681,-126 219.6681,-126 216.6681,-122 132.3319,-122 132.3319,-86 243.6681,-86 243.6681,-122"/>
<text text-anchor="middle" x="188" y="-99.8" font-family="Times,serif" font-size="14.00" fill="#000000">CommonModule</text>
</g>
<!-- CommonModule&#45;&gt;ModalModule -->
<g id="edge6" class="edge">
<title>CommonModule&#45;&gt;ModalModule</title>
<path fill="none" stroke="#000000" d="M211.6369,-122.2667C211.6369,-140.5552 211.6369,-166 211.6369,-166 211.6369,-166 402.9203,-166 402.9203,-166"/>
<polygon fill="#000000" stroke="#000000" points="402.9203,-169.5001 412.9203,-166 402.9203,-162.5001 402.9203,-169.5001"/>
</g>
<!-- Overlay -->
<g id="node12" class="node">
<title>Overlay</title>
<ellipse fill="#fdb462" stroke="#000000" cx="66" cy="-104" rx="42.2738" ry="18"/>
<text text-anchor="middle" x="66" y="-99.8" font-family="Times,serif" font-size="14.00" fill="#000000">Overlay</text>
</g>
<!-- Overlay&#45;&gt;ModalModule -->
<g id="edge11" class="edge">
<title>Overlay&#45;&gt;ModalModule</title>
<path fill="none" stroke="#000000" d="M66,-122.1289C66,-142.5724 66,-173 66,-173 66,-173 402.5652,-173 402.5652,-173"/>
<polygon fill="#000000" stroke="#000000" points="402.5653,-176.5001 412.5652,-173 402.5652,-169.5001 402.5653,-176.5001"/>
</g>
</g>
</svg>
