<?xml version="1.0" encoding="UTF-8" standalone="no"?>
<!DOCTYPE svg PUBLIC "-//W3C//DTD SVG 1.1//EN"
 "http://www.w3.org/Graphics/SVG/1.1/DTD/svg11.dtd">
<!-- Generated by graphviz version 2.40.1 (20161225.0304)
 -->
<!-- Title: dependencies Pages: 1 -->
<svg width="606pt" height="284pt"
 viewBox="0.00 0.00 606.00 284.00" xmlns="http://www.w3.org/2000/svg" xmlns:xlink="http://www.w3.org/1999/xlink">
<g id="graph0" class="graph" transform="scale(1 1) rotate(0) translate(4 280)">
<title>dependencies</title>
<polygon fill="#ffffff" stroke="transparent" points="-4,4 -4,-280 602,-280 602,4 -4,4"/>
<text text-anchor="start" x="278.0091" y="-42.4" font-family="sans-serif" font-weight="bold" font-size="14.00" fill="#000000">Legend</text>
<polygon fill="#ffffb3" stroke="transparent" points="65,-10 65,-30 85,-30 85,-10 65,-10"/>
<text text-anchor="start" x="88.629" y="-15.4" font-family="sans-serif" font-size="14.00" fill="#000000"> &#160;Declarations</text>
<polygon fill="#8dd3c7" stroke="transparent" points="178,-10 178,-30 198,-30 198,-10 178,-10"/>
<text text-anchor="start" x="201.7251" y="-15.4" font-family="sans-serif" font-size="14.00" fill="#000000"> &#160;Module</text>
<polygon fill="#80b1d3" stroke="transparent" points="264,-10 264,-30 284,-30 284,-10 264,-10"/>
<text text-anchor="start" x="287.7812" y="-15.4" font-family="sans-serif" font-size="14.00" fill="#000000"> &#160;Bootstrap</text>
<polygon fill="#fdb462" stroke="transparent" points="361,-10 361,-30 381,-30 381,-10 361,-10"/>
<text text-anchor="start" x="384.6732" y="-15.4" font-family="sans-serif" font-size="14.00" fill="#000000"> &#160;Providers</text>
<polygon fill="#fb8072" stroke="transparent" points="457,-10 457,-30 477,-30 477,-10 457,-10"/>
<text text-anchor="start" x="480.7258" y="-15.4" font-family="sans-serif" font-size="14.00" fill="#000000"> &#160;Exports</text>
<g id="clust1" class="cluster">
<title>cluster_ModalModule</title>
<polygon fill="none" stroke="#000000" stroke-dasharray="1,5" points="8,-70 8,-268 590,-268 590,-70 8,-70"/>
</g>
<g id="clust3" class="cluster">
<title>cluster_ModalModule_imports</title>
<polygon fill="none" stroke="#000000" points="242,-78 242,-130 370,-130 370,-78 242,-78"/>
</g>
<g id="clust4" class="cluster">
<title>cluster_ModalModule_exports</title>
<polygon fill="none" stroke="#000000" points="16,-208 16,-260 582,-260 582,-208 16,-208"/>
</g>
<!-- CommonModule -->
<g id="node1" class="node">
<title>CommonModule</title>
<polygon fill="#8dd3c7" stroke="#000000" points="361.6681,-122 358.6681,-126 337.6681,-126 334.6681,-122 250.3319,-122 250.3319,-86 361.6681,-86 361.6681,-122"/>
<text text-anchor="middle" x="306" y="-99.8" font-family="Times,serif" font-size="14.00" fill="#000000">CommonModule</text>
</g>
<!-- ModalModule -->
<g id="node2" class="node">
<title>ModalModule</title>
<polygon fill="#8dd3c7" stroke="#000000" points="354.0997,-187 351.0997,-191 330.0997,-191 327.0997,-187 257.9003,-187 257.9003,-151 354.0997,-151 354.0997,-187"/>
<text text-anchor="middle" x="306" y="-164.8" font-family="Times,serif" font-size="14.00" fill="#000000">ModalModule</text>
</g>
<!-- CommonModule&#45;&gt;ModalModule -->
<g id="edge1" class="edge">
<title>CommonModule&#45;&gt;ModalModule</title>
<path fill="none" stroke="#000000" d="M306,-122.1061C306,-122.1061 306,-140.991 306,-140.991"/>
<polygon fill="#000000" stroke="#000000" points="302.5001,-140.9909 306,-150.991 309.5001,-140.991 302.5001,-140.9909"/>
</g>
<!-- CSSBackdrop  -->
<g id="node3" class="node">
<title>CSSBackdrop </title>
<polygon fill="#fb8072" stroke="#000000" points="574.3283,-252 475.6717,-252 475.6717,-216 574.3283,-216 574.3283,-252"/>
<text text-anchor="middle" x="525" y="-229.8" font-family="Times,serif" font-size="14.00" fill="#000000">CSSBackdrop </text>
</g>
<!-- ModalModule&#45;&gt;CSSBackdrop  -->
<g id="edge2" class="edge">
<title>ModalModule&#45;&gt;CSSBackdrop </title>
<path fill="none" stroke="#000000" stroke-dasharray="5,2" d="M354.0605,-169C418.5267,-169 525,-169 525,-169 525,-169 525,-205.8939 525,-205.8939"/>
<polygon fill="#000000" stroke="#000000" points="521.5001,-205.8938 525,-215.8939 528.5001,-205.8939 521.5001,-205.8938"/>
</g>
<!-- CSSDialogContainer  -->
<g id="node4" class="node">
<title>CSSDialogContainer </title>
<polygon fill="#fb8072" stroke="#000000" points="457.7121,-252 320.2879,-252 320.2879,-216 457.7121,-216 457.7121,-252"/>
<text text-anchor="middle" x="389" y="-229.8" font-family="Times,serif" font-size="14.00" fill="#000000">CSSDialogContainer </text>
</g>
<!-- ModalModule&#45;&gt;CSSDialogContainer  -->
<g id="edge3" class="edge">
<title>ModalModule&#45;&gt;CSSDialogContainer </title>
<path fill="none" stroke="#000000" stroke-dasharray="5,2" d="M337.097,-187.1061C337.097,-187.1061 337.097,-205.991 337.097,-205.991"/>
<polygon fill="#000000" stroke="#000000" points="333.597,-205.9909 337.097,-215.991 340.597,-205.991 333.597,-205.9909"/>
</g>
<!-- OverlayDialogBoundary  -->
<g id="node5" class="node">
<title>OverlayDialogBoundary </title>
<polygon fill="#fb8072" stroke="#000000" points="301.9012,-252 144.0988,-252 144.0988,-216 301.9012,-216 301.9012,-252"/>
<text text-anchor="middle" x="223" y="-229.8" font-family="Times,serif" font-size="14.00" fill="#000000">OverlayDialogBoundary </text>
</g>
<!-- ModalModule&#45;&gt;OverlayDialogBoundary  -->
<g id="edge4" class="edge">
<title>ModalModule&#45;&gt;OverlayDialogBoundary </title>
<path fill="none" stroke="#000000" stroke-dasharray="5,2" d="M279.9504,-187.1061C279.9504,-187.1061 279.9504,-205.991 279.9504,-205.991"/>
<polygon fill="#000000" stroke="#000000" points="276.4505,-205.9909 279.9504,-215.991 283.4505,-205.991 276.4505,-205.9909"/>
</g>
<!-- OverlayTarget  -->
<g id="node6" class="node">
<title>OverlayTarget </title>
<polygon fill="#fb8072" stroke="#000000" points="125.6201,-252 24.3799,-252 24.3799,-216 125.6201,-216 125.6201,-252"/>
<text text-anchor="middle" x="75" y="-229.8" font-family="Times,serif" font-size="14.00" fill="#000000">OverlayTarget </text>
</g>
<!-- ModalModule&#45;&gt;OverlayTarget  -->
<g id="edge5" class="edge">
<title>ModalModule&#45;&gt;OverlayTarget </title>
<path fill="none" stroke="#000000" stroke-dasharray="5,2" d="M257.856,-169C190.1566,-169 75,-169 75,-169 75,-169 75,-205.8939 75,-205.8939"/>
<polygon fill="#000000" stroke="#000000" points="71.5001,-205.8938 75,-215.8939 78.5001,-205.8939 71.5001,-205.8938"/>
</g>
</g>
</svg>
